<svg width="17" height="17" viewBox="0 0 17 17" fill="none" xmlns="http://www.w3.org/2000/svg">
<path fill-rule="evenodd" clip-rule="evenodd" d="M1.66667 2.5C1.66667 2.03976 2.03976 1.66667 2.5 1.66667H14.1667C14.6269 1.66667 15 2.03976 15 2.5V14.1667C15 14.6269 14.6269 15 14.1667 15L13.3333 15C13.3333 12.6988 11.4679 10.8333 9.16667 10.8333H7.5C5.19881 10.8333 3.33333 12.6988 3.33333 15L2.5 15C2.03976 15 1.66667 14.6269 1.66667 14.1667V2.5ZM5 15H11.6667C11.6667 13.6193 10.5474 12.5 9.16667 12.5H7.5C6.11929 12.5 5 13.6193 5 15ZM2.5 0C1.11929 0 0 1.11929 0 2.5V14.1667C0 15.5474 1.11929 16.6667 2.5 16.6667H14.1667C15.5474 16.6667 16.6667 15.5474 16.6667 14.1667V2.5C16.6667 1.11929 15.5474 0 14.1667 0H2.5ZM6.66667 6.66667C6.66667 7.58714 7.41286 8.33333 8.33333 8.33333C9.25381 8.33333 10 7.58714 10 6.66667C10 5.74619 9.25381 5 8.33333 5C7.41286 5 6.66667 5.74619 6.66667 6.66667ZM8.33333 3.33333C6.49238 3.33333 5 4.82572 5 6.66667C5 8.50762 6.49238 10 8.33333 10C10.1743 10 11.6667 8.50762 11.6667 6.66667C11.6667 4.82572 10.1743 3.33333 8.33333 3.33333Z" fill="#141313"/>
</svg>
