<svg width="21" height="21" viewBox="0 0 21 21" fill="none" xmlns="http://www.w3.org/2000/svg">
<path fill-rule="evenodd" clip-rule="evenodd" d="M4.30135 3.44092C2.8761 3.44092 1.7207 4.59631 1.7207 6.02156V14.6237C1.7207 16.049 2.8761 17.2044 4.30135 17.2044H16.3444C17.7696 17.2044 18.925 16.049 18.925 14.6237V6.02156C18.925 4.59631 17.7696 3.44092 16.3444 3.44092H4.30135ZM3.51968 5.66194C3.65586 5.36645 3.95465 5.16135 4.30135 5.16135H16.3444C16.6911 5.16135 16.9899 5.36645 17.126 5.66194L10.851 10.5425C10.5403 10.7841 10.1054 10.7841 9.79473 10.5425L3.51968 5.66194ZM3.44113 7.78039V12.7871L6.54876 10.1974L3.44113 7.78039ZM3.51244 14.9672C3.64505 15.2713 3.94837 15.4839 4.30135 15.4839H16.3444C16.6973 15.4839 17.0007 15.2713 17.1333 14.9672L12.7069 11.2786L11.9072 11.9006C10.9753 12.6254 9.67039 12.6254 8.73849 11.9006L7.93879 11.2786L3.51244 14.9672ZM17.2046 12.7871V7.78039L14.097 10.1974L17.2046 12.7871Z" fill="#141313"/>
</svg>
