<svg width="660" height="719" viewBox="0 0 660 719" fill="none" xmlns="http://www.w3.org/2000/svg">
<path d="M617.949 445.779L268.738 647.044C420.086 684.724 574.964 595.461 617.949 445.779Z" fill="url(#paint0_linear_46_152)"/>
<path d="M414.615 88.6769C260.742 47.4892 102.712 138.569 61.5073 292.189C58.5894 303.067 56.2109 313.914 54.7022 324.816L446.323 99.1076C436.231 95.1697 425.512 91.5936 414.615 88.6769Z" fill="url(#paint1_linear_46_152)"/>
<path d="M516.337 58.7548L124.543 284.563C114.662 350.557 128.37 415.797 160.096 470.652L659.999 182.535C628.273 127.68 578.529 83.2094 516.337 58.7548Z" fill="url(#paint2_linear_46_152)"/>
<path d="M540.12 251.628L40.2168 539.745C77.1998 603.69 138.608 653.837 215.678 674.552C217.001 674.907 218.324 675.263 219.526 675.409L568.159 474.476C568.512 473.154 568.865 471.832 569.339 470.72C589.694 393.856 577.103 315.573 540.12 251.628Z" fill="url(#paint3_linear_46_152)"/>
<rect x="534.253" y="527.509" width="3.05551" height="3.05551" fill="#141313"/>
<rect x="519.299" y="527.509" width="3.05551" height="3.05551" fill="#141313"/>
<rect x="504" y="527.509" width="3.05551" height="3.05551" fill="#141313"/>
<rect x="551.567" y="527" width="3.05551" height="3.05551" transform="rotate(30 551.567 527)" fill="#141313"/>
<rect x="568.473" y="527" width="3.05551" height="3.05551" transform="rotate(60 568.473 527)" fill="#141313"/>
<rect x="534.253" y="541.683" width="3.05551" height="3.05551" fill="#141313"/>
<rect x="519.299" y="541.683" width="3.05551" height="3.05551" fill="#141313"/>
<rect x="504" y="541.683" width="3.05551" height="3.05551" fill="#141313"/>
<rect x="551.567" y="541.174" width="3.05551" height="3.05551" transform="rotate(30 551.567 541.174)" fill="#141313"/>
<rect x="568.473" y="541.174" width="3.05551" height="3.05551" transform="rotate(60 568.473 541.174)" fill="#141313"/>
<rect x="534.253" y="555.857" width="3.05551" height="3.05551" fill="#141313"/>
<rect x="519.299" y="555.857" width="3.05551" height="3.05551" fill="#141313"/>
<rect x="504" y="555.857" width="3.05551" height="3.05551" fill="#141313"/>
<rect x="551.518" y="555.348" width="3.05551" height="3.05551" transform="rotate(30 551.518 555.348)" fill="#141313"/>
<rect x="568.473" y="555.348" width="3.05551" height="3.05551" transform="rotate(60 568.473 555.348)" fill="#141313"/>
<rect x="534.253" y="570.031" width="3.05551" height="3.05551" fill="#141313"/>
<rect x="519.299" y="570.031" width="3.05551" height="3.05551" fill="#141313"/>
<rect x="504" y="570.031" width="3.05551" height="3.05551" fill="#141313"/>
<rect x="551.567" y="569.521" width="3.05551" height="3.05551" transform="rotate(30 551.567 569.521)" fill="#141313"/>
<rect x="568.473" y="569.521" width="3.05551" height="3.05551" transform="rotate(60 568.473 569.521)" fill="#141313"/>
<rect x="534.253" y="584.205" width="3.05551" height="3.05551" fill="#141313"/>
<rect x="519.299" y="584.205" width="3.05551" height="3.05551" fill="#141313"/>
<rect x="504" y="584.205" width="3.05551" height="3.05551" fill="#141313"/>
<rect x="551.567" y="583.696" width="3.05551" height="3.05551" transform="rotate(30 551.567 583.696)" fill="#141313"/>
<rect x="568.473" y="583.696" width="3.05551" height="3.05551" transform="rotate(60 568.473 583.696)" fill="#141313"/>
<rect x="534.253" y="598.378" width="3.05551" height="3.05551" fill="#141313"/>
<rect x="519.299" y="598.378" width="3.05551" height="3.05551" fill="#141313"/>
<rect x="504" y="598.378" width="3.05551" height="3.05551" fill="#141313"/>
<rect x="551.518" y="597.87" width="3.05551" height="3.05551" transform="rotate(30 551.518 597.87)" fill="#141313"/>
<rect x="568.473" y="597.87" width="3.05551" height="3.05551" transform="rotate(60 568.473 597.87)" fill="#141313"/>
<rect x="534.253" y="612.553" width="3.05551" height="3.05551" fill="#141313"/>
<rect x="519.299" y="612.553" width="3.05551" height="3.05551" fill="#141313"/>
<rect x="504" y="612.553" width="3.05551" height="3.05551" fill="#141313"/>
<rect x="551.567" y="612.043" width="3.05551" height="3.05551" transform="rotate(30 551.567 612.043)" fill="#141313"/>
<rect x="568.473" y="612.043" width="3.05551" height="3.05551" transform="rotate(60 568.473 612.043)" fill="#141313"/>
<rect x="534.253" y="626.727" width="3.05551" height="3.05551" fill="#141313"/>
<rect x="519.299" y="626.727" width="3.05551" height="3.05551" fill="#141313"/>
<rect x="504" y="626.727" width="3.05551" height="3.05551" fill="#141313"/>
<rect x="551.567" y="626.217" width="3.05551" height="3.05551" transform="rotate(30 551.567 626.217)" fill="#141313"/>
<rect x="568.473" y="626.217" width="3.05551" height="3.05551" transform="rotate(60 568.473 626.217)" fill="#141313"/>
<g clip-path="url(#clip0_46_152)">
<path d="M505.964 27.2606L504.33 22.4405C503.428 19.7784 501.327 17.6089 498.561 16.6713L493.741 15.0374C492.753 14.7026 492.753 13.3002 493.741 12.9654L498.561 11.3315C501.223 10.4291 503.392 8.3284 504.33 5.56225L505.964 0.742207C506.299 -0.245559 507.701 -0.24534 508.036 0.742207L509.67 5.56225C510.572 8.22433 512.673 10.3938 515.439 11.3315L520.259 12.9654C521.247 13.3003 521.247 14.7026 520.259 15.0374L515.439 16.6713C512.777 17.5736 510.608 19.6744 509.67 22.4405L508.036 27.2606C507.701 28.2484 506.299 28.2481 505.964 27.2606ZM497.499 14.0014L499.263 14.5993C502.557 15.7159 505.242 18.3152 506.402 21.7381L507 23.502L507.598 21.7381C508.715 18.4441 511.314 15.7596 514.737 14.5993L516.501 14.0014L514.737 13.4034C511.443 12.2868 508.758 9.68744 507.598 6.26455L507 4.5006L506.402 6.26455C505.285 9.5586 502.686 12.2431 499.263 13.4034L497.499 14.0014Z" fill="#141313"/>
</g>
<g clip-path="url(#clip1_46_152)">
<path d="M69.186 466.419L67.9022 462.632C67.1932 460.54 65.5427 458.835 63.3693 458.099L59.582 456.815C58.8059 456.552 58.8061 455.45 59.582 455.187L63.3693 453.903C65.4609 453.194 67.1655 451.544 67.9022 449.37L69.186 445.583C69.4491 444.807 70.551 444.807 70.814 445.583L72.0978 449.37C72.8069 451.462 74.4573 453.166 76.6308 453.903L80.418 455.187C81.1941 455.45 81.1939 456.552 80.418 456.815L76.6308 458.099C74.5392 458.808 72.8346 460.458 72.0978 462.632L70.814 466.419C70.5509 467.195 69.449 467.195 69.186 466.419ZM62.5352 456.001L63.9211 456.471C66.5093 457.348 68.6186 459.39 69.5302 462.08L70 463.466L70.4698 462.08C71.3472 459.492 73.3895 457.382 76.0789 456.471L77.4648 456.001L76.0789 455.531C73.4907 454.654 71.3815 452.611 70.4698 449.922L70 448.536L69.5302 449.922C68.6529 452.51 66.6105 454.619 63.9211 455.531L62.5352 456.001Z" fill="#141313"/>
</g>
<defs>
<linearGradient id="paint0_linear_46_152" x1="626.726" y1="506.643" x2="322.479" y2="677.18" gradientUnits="userSpaceOnUse">
<stop stop-color="#FFB147"/>
<stop offset="0.520264" stop-color="#FF6C63"/>
<stop offset="1" stop-color="#B86ADF"/>
</linearGradient>
<linearGradient id="paint1_linear_46_152" x1="407.89" y1="83.8912" x2="67.1154" y2="275.911" gradientUnits="userSpaceOnUse">
<stop stop-color="#FFB147"/>
<stop offset="0.520264" stop-color="#FF6C63"/>
<stop offset="1" stop-color="#B86ADF"/>
</linearGradient>
<linearGradient id="paint2_linear_46_152" x1="529.427" y1="191.437" x2="170.404" y2="398.639" gradientUnits="userSpaceOnUse">
<stop stop-color="#FF6C63"/>
<stop offset="0.520264" stop-color="#FFB147" stop-opacity="0.2"/>
</linearGradient>
<linearGradient id="paint3_linear_46_152" x1="508.384" y1="383.657" x2="106.629" y2="626.399" gradientUnits="userSpaceOnUse">
<stop stop-color="#B238EF"/>
<stop offset="1" stop-color="#FFB147" stop-opacity="0.33"/>
</linearGradient>
<clipPath id="clip0_46_152">
<rect width="28" height="28" fill="white" transform="translate(493)"/>
</clipPath>
<clipPath id="clip1_46_152">
<rect width="22" height="22" fill="white" transform="translate(59 445)"/>
</clipPath>
</defs>
</svg>
