<svg width="21" height="21" viewBox="0 0 21 21" fill="none" xmlns="http://www.w3.org/2000/svg">
<path fill-rule="evenodd" clip-rule="evenodd" d="M4.23938 3.8097C5.75108 2.29799 8.20204 2.29799 9.71375 3.8097C11.2255 5.3214 11.2255 7.77237 9.71375 9.28407C9.15106 9.84676 8.45824 10.2 7.73216 10.3438L9.87054 12.4822C10.0143 11.7561 10.3676 11.0633 10.9303 10.5006C12.442 8.98889 14.8929 8.98889 16.4047 10.5006C17.9164 12.0123 17.9164 14.4633 16.4047 15.975C14.9957 17.3839 12.771 17.4797 11.2511 16.2624L11.2344 16.2791L10.9303 15.975L4.23938 9.28407L3.93524 8.97994L3.95195 8.96323C2.73466 7.44337 2.83047 5.2186 4.23938 3.8097ZM12.1468 14.7584C12.9866 15.5983 14.3483 15.5983 15.1881 14.7584C16.028 13.9186 16.028 12.557 15.1881 11.7171C14.3483 10.8773 12.9866 10.8773 12.1468 11.7171C11.307 12.557 11.307 13.9186 12.1468 14.7584ZM8.49722 8.06754C7.65739 8.90738 6.29574 8.90738 5.4559 8.06754C4.61607 7.22771 4.61607 5.86606 5.4559 5.02622C6.29574 4.18639 7.65738 4.18639 8.49722 5.02622C9.33706 5.86606 9.33706 7.22771 8.49722 8.06754Z" fill="#141313"/>
</svg>
