<svg width="48" height="37" viewBox="0 0 48 37" fill="none" xmlns="http://www.w3.org/2000/svg">
<path d="M4.22154 33.3279C1.47487 30.4106 0.00020681 27.1386 0.000207273 21.8346C0.000208089 12.5013 6.55221 4.13592 16.0802 -7.90448e-05L18.4615 3.67459C9.56821 8.48525 7.82955 14.7279 7.13621 18.6639C8.56821 17.9226 10.4429 17.6639 12.2802 17.8346C17.0909 18.2799 20.8829 22.2293 20.8829 27.1386C20.8829 29.6139 19.8995 31.9879 18.1492 33.7383C16.3989 35.4886 14.0249 36.4719 11.5495 36.4719C8.68821 36.4719 5.95221 35.1653 4.22154 33.3279ZM30.8882 33.3279C28.1415 30.4106 26.6669 27.1386 26.6669 21.8346C26.6669 12.5013 33.2189 4.13592 42.7469 -7.67136e-05L45.1282 3.67459C36.2349 8.48526 34.4962 14.7279 33.8029 18.6639C35.2349 17.9226 37.1095 17.6639 38.9469 17.8346C43.7575 18.2799 47.5469 22.2293 47.5469 27.1386C47.5469 29.6139 46.5635 31.9879 44.8132 33.7383C43.0629 35.4886 40.6889 36.4719 38.2135 36.4719C35.3522 36.4719 32.6162 35.1653 30.8855 33.3279L30.8882 33.3279Z" fill="white"/>
</svg>
